<?xml version="1.0" encoding="UTF-8" standalone="no"?>
<svg
   viewBox="0 0 330 330"
   fill="#d69d36"
   version="1.1"
   id="svg6"
   sodipodi:docname="Emblem_of_the_United_Nations.svg"
   width="330"
   height="330"
   inkscape:version="1.4 (86a8ad7, 2024-10-11)"
   xmlns:inkscape="http://www.inkscape.org/namespaces/inkscape"
   xmlns:sodipodi="http://sodipodi.sourceforge.net/DTD/sodipodi-0.dtd"
   xmlns="http://www.w3.org/2000/svg"
   xmlns:svg="http://www.w3.org/2000/svg">
  <defs
     id="defs6" />
  <sodipodi:namedview
     id="namedview6"
     pagecolor="#505050"
     bordercolor="#eeeeee"
     borderopacity="1"
     inkscape:showpageshadow="0"
     inkscape:pageopacity="0"
     inkscape:pagecheckerboard="0"
     inkscape:deskcolor="#505050"
     inkscape:zoom="1.4142136"
     inkscape:cx="344.361"
     inkscape:cy="205.41452"
     inkscape:window-width="1147"
     inkscape:window-height="1041"
     inkscape:window-x="443"
     inkscape:window-y="97"
     inkscape:window-maximized="0"
     inkscape:current-layer="svg6" />
  <g
     stroke="#d69d36"
     stroke-width="4"
     fill="none"
     id="g5"
     transform="translate(-70,-2)"
     style="fill:#000000;fill-opacity:1;stroke:#000000;stroke-opacity:1">
    <circle
       cx="235"
       cy="167"
       r="163"
       id="circle1"
       style="fill:#000000;fill-opacity:1;stroke:#000000;stroke-opacity:1" />
    <circle
       cx="235"
       cy="167"
       r="129"
       id="circle2"
       style="fill:#000000;fill-opacity:1;stroke:#000000;stroke-opacity:1" />
    <circle
       cx="235"
       cy="167"
       r="98"
       id="circle3"
       style="fill:#000000;fill-opacity:1;stroke:#000000;stroke-opacity:1" />
    <circle
       cx="235"
       cy="167"
       r="64"
       id="circle4"
       style="fill:#000000;fill-opacity:1;stroke:#000000;stroke-opacity:1" />
    <circle
       cx="235"
       cy="167"
       r="33"
       id="circle5"
       style="fill:#000000;fill-opacity:1;stroke:#000000;stroke-opacity:1" />
    <path
       d="m 235,4 v 130 m 0,66 V 330 M 120,52 l 92,92 m 46,46 92,92 M 72,167 h 130 m 66,0 h 130 m -278,115 92,-92 m 46,-46 92,-92"
       id="path5"
       style="fill:#000000;fill-opacity:1;stroke:#000000;stroke-opacity:1" />
  </g>
  <g
     id="m"
     transform="matrix(0.1,0,0,0.1,141,138)"
     style="stroke:#6a6a6a;stroke-opacity:1;fill:#000000;fill-opacity:1;stroke-width:5;stroke-dasharray:none">
    <path
       d="m 161,672 c 4,-8 12,-40 22,-30 10,10 16,0 16,0 0,0 5,5 2,15 -2,10 -5,20 -11,22 -6,1 -11,5 -19,6 -6,1 -10,-13 -10,-13 z m 82,-13 c 2,-2 5,8 10,6 5,-1 7,9 2,9 -5,0 -5,6 -5,9 0,3 0,9 -4,13 -4,4 -7,1 -12,-1 -5,-3 -7,-3 -14,-3 -6,0 -1,10 -1,10 0,0 -26,-1 -21,-5 5,-4 10,-5 6,-8 -4,-3 0,-5 0,-10 0,-5 12,-3 9,-6 -4,-4 0,-18 6,-10 l 4,-9 c -4,-4 -1,-5 -9,-8 -7,-3 -1,-18 -1,-18 l 1,-10 c 2,-13 27,-14 29,-3 1,11 0,19 0,19 l 7,3 c 0,0 -1,8 -7,8 -6,0 0,4 -4,8 z M 1164,51 c -7,7 -22,10 -22,10 l -5,19 -8,7 c 0,0 2,5 0,17 -2,12 -17,19 -17,19 l -7,8 c 0,0 -40,2 -45,0 -15,-7 -5,-27 5,-25 10,2 -2,-29 -2,-29 l 13,-2 c 0,0 2,-30 7,-30 5,0 -2,-10 -8,-15 -7,-5 -15,-22 -22,-20 -7,2 -33,0 -33,0 l -5,10 -18,3 c 0,0 2,13 -2,17 -10,12 -48,37 -32,-5 l 5,-10 V 10 L 938,8 c 0,0 -15,-5 -15,-12 0,-7 -2,-15 -2,-15 l -35,-39 -42,-5 -3,-8 -25,-3 c -30,-15 -57,-2 -52,24 5,25 13,35 -3,35 -17,0 -20,-13 -20,-13 0,0 -13,-5 -13,2 0,7 -5,20 0,27 5,7 -7,17 -12,12 -5,-5 -18,-20 -15,-25 3,-5 -23,-37 3,-42 27,-5 -2,-20 8,-24 l 13,-7 h 13 l 8,-7 -22,-3 -13,-2 -25,-2 c -25,17 -30,37 -30,37 -13,25 -45,-10 -33,-24 12,-14 -37,-2 -45,5 -8,7 -33,3 -33,3 -5,15 -28,-2 -22,-12 7,-10 7,-17 7,-17 l -8,-2 -10,19 c -23,0 -30,13 -25,22 5,8 -7,-2 -10,10 -3,12 2,12 12,17 10,5 -5,5 2,13 7,8 27,0 15,12 -12,12 -35,7 -35,7 -2,15 -33,12 -37,7 -3,-5 -28,-35 -28,-35 l -32,-2 c -3,-24 15,-12 22,-30 7,-19 10,-49 10,-49 0,0 -27,-2 -28,7 -2,8 -18,14 -18,14 0,0 -13,5 -8,12 5,7 -10,10 -10,10 0,0 3,11 -2,15 -13,14 -47,2 -52,-3 l -20,-8 -20,-13 -23,10 -7,7 h -25 l -2,20 45,5 3,42 -18,-6 h -12 l -5,-10 -10,-2 v 37 l 10,8 8,8 17,2 3,20 42,2 5,8 25,2 48,49 -3,15 -8,5 c 3,12 -22,5 -22,5 v 10 l 12,2 12,7 17,-29 c 18,-12 27,5 28,15 2,10 -8,8 -8,8 v 24 l 10,3 c 17,20 -7,32 -7,32 l -5,17 c -5,15 -23,12 -23,12 l -7,10 -20,5 39,5 c 4,-14 14,-17 19,-10 5,7 5,19 5,19 l 10,2 -2,19 10,3 v 54 l 12,13 c 20,-8 20,5 10,12 -10,7 -3,37 -3,37 l -8,8 v 14 l -10,7 v 19 c -17,-8 -37,-5 -42,0 -15,-10 -47,-7 -47,2 10,13 -12,17 -12,17 l -12,13 c 8,17 -8,19 -8,19 v 32 l -20,19 2,44 c 0,12 25,13 30,7 5,-7 25,14 25,14 h 15 l 3,-30 -10,-5 v -49 l 17,-19 c 20,-7 13,44 13,49 2,19 10,17 18,13 17,-7 3,19 -10,17 -13,-2 -5,17 -5,17 l 8,3 -15,12 -13,15 -17,-5 -20,-2 -7,-12 -12,-2 -2,24 -8,10 -20,20 c 27,0 -3,19 -10,19 15,5 -2,20 -40,8 v 12 l -13,2 12,13 13,2 -5,29 c 0,22 -55,7 -60,2 l -2,30 -10,2 2,20 -2,29 18,-3 v 12 l 45,2 65,-69 38,-8 c 3,-17 20,3 20,3 17,-2 20,10 20,10 l 22,3 c 18,5 7,7 8,14 2,10 10,7 10,7 l 3,-22 10,2 -10,-12 -18,-8 -20,-8 c -13,-19 3,-15 17,-13 h 22 c 0,0 25,34 25,42 0,8 12,10 12,10 l 15,-2 5,12 h 15 l 5,10 h 30 l 2,-15 -28,-5 -2,-17 -20,-5 c -7,-29 5,-37 13,-24 l 10,2 -3,-25 12,-3 -3,-35 -10,-3 v -12 l 42,2 c -3,-22 2,-32 2,-32 h 12 l 2,8 51,5 36,-41 c -2,-3 4,-5 0,-9 -5,-5 -12,0 -20,-5 -8,-5 0,-34 -2,-40 -2,-7 28,-17 23,-2 -5,15 0,22 0,22 22,-20 40,2 38,7 -2,5 12,10 20,5 8,-5 18,15 15,25 -3,10 -33,8 -35,-2 -2,-10 -7,-7 -10,-2 -3,5 -18,8 -27,3 -2,-1 -2,-2 -3,-3 l -36,41 h 2 c 20,12 10,27 3,30 -7,3 -18,3 -18,3 l -3,7 -43,3 -3,17 c -22,-3 -30,20 -25,32 5,12 0,22 0,22 l 18,8 23,-7 c 3,-17 18,-20 32,-30 13,-10 35,19 28,32 -7,13 -7,19 -7,19 l 2,15 -17,7 -13,7 -2,8 h -45 l -8,8 -22,2 -7,10 -15,2 c 0,0 -25,12 -15,25 10,14 -42,12 -53,-7 -3,17 -22,2 -22,2 l -18,-5 -2,-25 c -3,-17 -35,-17 -33,-5 2,12 -60,5 -60,5 l -20,10 -18,11 -2,8 -30,3 -13,7 -5,-10 h -13 l -13,19 c -35,2 -68,22 -65,30 3,8 -13,17 -13,17 l -15,5 -10,15 -20,7 -3,35 -10,7 v 15 l -12,3 v 8 l -17,2 10,25 13,7 c 23,3 13,32 13,32 l 13,2 7,19 13,27 c 5,20 20,15 27,14 7,-2 13,20 13,20 l 66,2 c 0,0 -3,7 8,10 12,3 88,7 91,2 -3,-15 42,-19 60,-5 18,13 43,5 43,5 l 25,30 17,37 28,8 20,5 7,29 15,2 5,19 c 18,13 -5,42 -5,42 v 37 l 13,7 -2,14 22,22 25,2 63,67 50,15 8,27 13,-2 10,-8 40,-2 20,-19 22,-3 185,-157 -17,-10 v -37 c 30,-22 32,-61 3,-64 -21,-3 -12,-25 8,-29 l 12,-5 v -15 l 38,-35 v -27 l -83,-69 c -37,-13 0,-94 25,-93 25,2 -2,-125 -2,-125 l -13,-7 3,-41 h -18 l -30,39 -8,27 c -3,35 -106,29 -111,24 -5,-5 -40,-20 -40,-20 0,0 -27,-22 -32,-15 -5,7 -28,-8 -28,-3 0,5 -22,-12 -22,-12 l -33,-12 25,-5 -5,-20 43,22 c 5,7 27,5 27,5 l 7,8 c 0,0 13,-2 22,8 8,10 52,2 52,2 l 12,10 18,7 52,2 2,-32 10,-10 -2,-20 12,-10 v -17 l 10,-3 2,-37 8,-2 v -81 l -25,-24 c -2,8 -28,8 -28,8 0,0 -7,12 -12,12 -5,0 7,15 3,25 -3,10 -17,10 -17,10 l -25,7 -7,8 h -27 l -3,-22 30,-8 17,-8 8,-17 c 2,-17 22,-15 22,-15 0,0 38,-32 40,-47 2,-15 15,-57 38,-57 h 43 c 17,-7 12,-29 12,-29 l 22,-3 3,12 c 0,0 30,3 33,-2 3,-5 10,-17 18,-12 8,5 35,-12 35,-12 2,-12 43,-7 43,-7 l 5,-15 c 0,0 -28,-39 -33,-39 -5,0 -32,-24 -35,-15 -27,-7 -25,-44 -25,-44 l -10,-24 c 0,-14 -25,-42 -30,-39 -25,-19 -7,-40 0,-42 7,-2 23,-25 23,-25 l 8,-24 28,-8 3,-22 -15,-2 c 0,0 17,-30 25,-30 8,0 63,0 68,-3 5,-3 15,-30 15,-35 0,-5 13,-7 18,-8 5,-2 17,-15 20,-22 9,-17 -2,-59 -9,-52 z m 461,539 c -1,-3 -2,-6 -5,-7 -7,-3 -20,2 -26,6 l 6,8 c 6,-4 15,-6 16,-5 v -1 z m 43,201 -10,-1 c -1,8 1,18 9,19 l 2,-10 c 0,0 -1,-4 -1,-8 z m 37,-40 c 3,10 6,20 6,21 l 9,-4 c 0,0 -4,-10 -6,-20 z m 22,-8 v -2 c 0,-3 -1,-7 -3,-11 l -9,5 c 1,2 1,5 2,7 0,3 1,6 3,8 2,1 4,2 7,1 l -2,-10 c 0,1 1,1 2,2 z m -85,72 c 7,-4 16,-13 15,6 -1,19 -9,13 -15,19 -6,6 -10,-19 0,-25 z m -401,130 1,-15 16,2 -1,14 z m 1,33 c -2,-9 -12,-12 -13,-12 l -3,10 c 1,0 2,1 3,2 l 2,9 c -1,1 -2,2 -2,3 l 7,7 c 5,-8 7,-13 6,-19 z m -1243,312 -10,9 -5,4 5,4 12,8 6,-8 -7,-5 5,-4 z m 118,121 -4,9 10,5 -3,4 7,7 13,-13 -6,-4 z m -459,-2170 10,10 -7,7 -10,-10 z m 302,315 10,8 -6,8 -10,-8 z m -38,7 2,19 h 25 c 10,0 -8,-12 -8,-12 0,0 -20,2 -19,-7 z m 548,-470 -17,-2 -1,10 14,1 11,17 8,-6 -11,-18 -2,-2 z m 45,-354 -5,9 13,8 3,2 2,-2 19,-12 -6,-8 -15,10 z m 89,48 -8,-9 -7,8 15,15 3,-3 17,-14 -7,-8 z M 52,-862 c -1,-6 33,-7 38,-2 5,5 2,14 17,14 15,0 8,10 7,15 -2,5 -18,3 -20,-2 -2,-5 -27,-7 -27,-7 0,0 -13,-10 -15,-18 z m 191,-19 c 26,8 35,2 37,-5 2,-7 3,-8 13,-10 10,-2 -2,-22 -12,-20 -10,2 -20,-3 -22,-12 -2,-8 -18,-30 -20,-13 -2,17 -12,17 -10,29 3,11 8,29 14,31 z m 165,-285 c -4,-15 -25,19 -3,25 22,7 43,0 43,0 l 5,-10 83,2 c 7,-7 10,-17 10,-17 0,0 20,-7 28,-3 8,3 2,-24 -7,-20 -8,3 -25,2 -25,2 h -30 c -2,-12 -28,-7 -30,0 -1,6 -11,8 -11,8 l -38,3 c -4,10 -23,17 -25,10 z m 3,83 -22,-22 v -19 l -7,-7 -7,-24 -22,-7 -22,8 -23,15 -25,3 -13,15 53,5 10,17 38,3 25,25 c 23,10 28,0 15,-12 z m 77,162 7,-16 9,5 -7,15 z m 497,-17 c -3,-13 33,-25 42,-15 8,10 32,12 35,62 1,18 -30,-19 -30,-19 l -25,-8 c -14,-3 -21,-11 -22,-20 z m -175,44 c -5,15 -7,35 -15,35 -8,0 -5,22 -5,22 0,0 22,0 28,2 7,2 7,19 7,19 25,-2 35,32 32,41 -3,8 10,8 10,8 0,0 0,27 -3,34 -3,7 22,12 28,22 7,10 -3,44 -8,46 -5,2 13,7 12,15 -2,8 5,0 7,14 2,13 5,42 5,42 l 23,2 c 3,-22 46,-23 53,-20 28,10 50,54 50,64 0,10 -18,12 -18,12 l 3,49 c 28,8 52,49 48,56 -3,7 20,5 20,5 3,-30 32,-20 33,-10 2,10 7,32 7,32 l 8,15 12,12 18,-2 5,10 22,3 c 0,0 18,20 20,25 2,5 27,3 33,5 7,2 17,7 18,15 2,8 12,22 12,22 0,0 20,5 22,12 2,7 10,22 10,22 l 17,14 2,15 18,2 5,20 30,-2 17,-12 c 22,-12 37,-27 38,-34 2,-7 5,-32 22,-27 17,5 5,-37 5,-37 0,0 -23,-17 -22,-25 2,-8 -23,-25 -22,-32 2,-7 -22,-20 -20,-27 2,-7 -12,-25 -12,-25 l -25,-24 -3,-15 -20,-2 -40,-49 2,-14 -12,-2 v -19 l -12,-7 -18,-2 -37,-40 -3,-19 h -18 l 3,-35 c 12,-15 5,-44 5,-44 0,0 -23,12 -35,7 -12,-5 5,-17 5,-17 v -13 l -10,-10 c 0,0 -28,3 -30,-2 -2,-5 -7,-27 -7,-27 l -2,-29 -12,-5 -2,-10 -18,2 v -20 l -10,-3 -10,-5 -2,-20 -37,-2 -12,-17 -13,-20 -42,-3 -10,-10 -17,-3 -12,-5 -5,8 -32,2 -2,10 c -14,7 -80,0 -82,5 z m -306,-10 c 3,5 23,10 23,10 13,0 22,10 22,15 0,5 18,3 18,3 l 2,-12 -13,-17 -12,-8 c 0,0 -18,-2 -18,-7 0,-4 -19,11 -22,16 z m 0,57 -13,-3 v 15 l 18,2 z m 185,186 v -13 c 0,0 -2,-13 -10,-13 -8,0 -23,-10 -20,-17 3,-7 -28,-14 -28,-14 0,0 -28,-27 -18,-24 10,3 5,-12 5,-12 0,0 -20,3 -25,2 -5,-2 -3,-17 -3,-17 0,0 -20,-5 -20,0 0,5 7,5 10,15 3,10 2,27 17,30 15,3 18,7 20,14 2,7 20,8 20,8 l 13,7 z m 13,45 c -2,-7 -5,-30 5,-29 10,2 3,0 15,5 12,5 13,-8 13,-8 h 18 l 23,19 -3,15 -17,2 c -8,-13 -25,-8 -22,3 3,12 -8,34 -15,35 -7,2 -28,2 -27,-8 3,-10 10,-34 10,-34 z m 274,230 12,-37 c -17,-3 -13,-22 -13,-22 -2,-15 -25,-32 -33,-27 -8,5 -5,-35 -5,-35 0,0 15,-10 22,-5 7,5 -57,-84 -70,-76 -13,8 -43,-8 -42,-24 2,-15 -60,-66 -60,-66 0,0 -20,-13 -23,-3 -3,10 -10,17 0,22 10,5 8,-8 20,3 12,12 33,27 25,37 -8,10 -18,14 -18,14 l 12,14 h 18 l 3,29 c 0,0 20,10 25,22 5,12 5,19 0,25 -5,7 -15,19 -13,30 2,12 15,17 15,17 l 13,2 10,5 v 22 c 13,-3 35,15 33,27 -2,12 3,5 20,17 17,12 12,14 23,22 11,7 21,2 26,-13 z m -382,216 c 0,5 -3,12 7,14 10,2 28,-7 30,3 2,10 2,17 15,22 13,5 22,7 32,7 10,0 32,-3 32,-3 0,0 24,4 28,8 18,19 30,24 35,15 5,-8 -2,-27 -3,-34 -2,-7 -25,-39 -33,-32 -8,7 -10,0 -25,5 -15,5 -47,2 -48,-5 -2,-7 -25,-10 -25,-17 0,-7 -17,-15 -15,-5 2,10 -12,15 -15,12 -5,-4 -15,10 -15,10 z m -83,18 -2,12 18,2 c 0,0 8,7 8,12 0,5 12,10 18,10 7,0 25,-14 25,-14 0,0 8,-24 2,-22 -7,2 -20,12 -22,2 -2,-10 -22,-5 -22,-5 z m -86,19 5,-1 3,9 -5,2 z m 6,-16 10,-2 3,15 -9,2 z m 28,2 1,10 36,-1 v -10 z m 324,-8 17,-2 1,10 -17,2 z m 44,37 5,-12 9,4 -5,12 z m 145,-169 17,-1 1,10 -17,1 z m 28,10 h 10 v 8 h -10 z m 30,-142 -10,1 -2,-15 10,-1 z m -10,210 h 10 v 12 h -10 z m 22,6 9,4 -5,11 -9,-5 z m -49,-133 c 10,0 -3,39 23,35 27,-3 2,12 22,13 20,2 15,-15 22,-27 7,-12 3,-19 -8,-22 -12,-3 -12,-3 -15,-17 -3,-13 -17,-17 -17,-17 l -5,-20 -22,13 -22,29 c 0,24 12,13 22,13 z m 65,92 c 13,-7 42,-7 40,-17 -2,-10 17,-13 17,-13 l 5,20 15,10 2,19 c 0,0 5,-3 -13,2 -18,5 -7,13 -7,13 l -40,2 -5,-17 z m -215,141 c 8,-2 28,-3 32,2 3,5 -12,12 -12,12 l -20,3 c -6,-8 -8,-15 0,-17 z m 107,-15 c 9,9 -50,7 -50,0 0,-7 5,-30 20,-25 15,5 17,-30 17,-30 0,0 -13,2 -2,-5 12,-7 0,-17 -5,-22 -5,-5 -10,-14 -10,-14 h 23 c 10,-7 13,-39 13,-39 20,7 30,-7 30,-7 0,0 3,10 10,19 7,8 -17,12 -8,17 8,5 12,20 8,25 -3,5 -22,2 -22,-5 0,-7 -7,8 0,17 7,8 -8,20 -12,20 -3,0 -25,3 -7,14 18,10 38,5 38,5 0,0 15,-2 20,7 5,8 -2,10 -10,10 -8,0 -48,-3 -48,-3 0,0 -10,11 -5,16 z m 194,-191 c -5,-7 -10,-12 -17,-15 -7,-3 -12,-7 -18,-7 -7,0 -13,-7 -10,-15 3,-8 -5,-12 -5,-19 0,-7 5,-7 13,-2 8,5 7,7 13,15 7,8 10,17 17,15 7,-2 12,15 18,10 7,-5 5,12 5,12 z m -16,16 c 5,7 15,12 15,19 0,7 -3,12 7,13 10,2 17,-2 20,7 3,8 3,22 2,29 -2,7 2,17 10,17 8,0 10,2 10,7 0,5 10,-19 10,-19 -8,-7 -15,-22 -15,-22 0,0 -8,-24 -8,-27 0,-3 -12,-7 -17,-8 -5,-2 -13,-17 -13,-17 z m 108,273 -7,-15 c 0,0 0,-13 3,-20 3,-7 -7,-13 -12,-15 -5,-2 -3,-15 -5,-22 -2,-7 -13,-12 -13,-12 0,0 -3,-25 -3,-30 0,-5 -15,-12 -10,-17 5,-5 8,-12 13,-15 5,-3 -5,-27 3,-22 8,5 8,14 12,20 3,7 -2,30 7,35 8,5 -2,22 12,22 13,0 5,32 5,32 0,0 -3,24 5,25 8,2 3,42 3,42 z m 5,129 5,-10 9,5 -5,10 z m 11,-55 10,1 -1,14 -10,-2 z m -21,-56 -13,-2 -30,5 -17,32 c 0,0 8,5 15,17 7,12 10,81 -10,93 -20,12 2,5 2,5 l -3,37 c 5,17 13,8 18,0 5,-8 10,-10 17,-19 7,-8 17,-24 18,-35 2,-12 10,-30 5,-35 -5,-5 5,-29 5,-29 0,0 7,-14 0,-27 -7,-14 2,-29 7,-35 z m -73,-172 h -25 c 0,0 8,3 -15,-19 -23,-22 -38,5 -38,5 l -27,3 v 27 l -13,5 2,17 18,-2 c 0,0 0,20 5,12 5,-8 47,2 43,22 -1,8 42,30 37,57 22,3 17,25 17,25 l 28,3 8,-17 8,2 v -10 l -18,-5 -3,-54 -12,-8 3,-14 -13,-5 7,-22 z m -62,414 10,-4 -4,-8 -2,-6 -5,3 -12,7 -11,-7 -5,9 13,8 3,2 2,-2 10,-5 z m 44,-22 18,3 2,-10 -18,-3 z m -34,216 c -7,-10 33,-27 40,-7 7,20 0,17 -7,15 -6,-2 -23,5 -33,-8 z M 934,759 h 12 v 32 h -12 z m 77,309 c -3,13 -15,20 -22,15 -7,-5 8,8 12,15 3,7 13,7 17,0 3,-7 2,-22 5,-29 3,-6 -10,-8 -12,-1 z m 37,68 15,7 2,29 c 20,20 85,3 85,-2 0,-5 -3,-62 -3,-62 l -8,-8 -2,-42 c 7,-22 -32,-54 -35,-47 -3,7 -25,2 -25,8 0,7 -13,40 -7,52 7,12 -5,12 -7,24 -2,10 -19,30 -15,41 z m -468,-361 -5,-8 -14,8 6,9 z m -254,33 c -8,8 -6,15 0,21 m 52,20 11,-19 -9,-3 -12,8 5,5 z M 368,322 c 7,15 5,37 30,54 8,6 -5,17 -13,12 -8,-5 -32,-42 -32,-42 v -22 c 5,-13 12,-8 15,-2 z m -88,88 c 4,15 3,-24 10,-22 7,2 2,-24 2,-24 l -30,22 c 14,2 16,17 18,24 z m -90,108 c -2,20 -27,27 -27,27 l -18,-5 -10,-8 -2,-24 15,-2 3,10 z M 163,314 v -24 l -3,-22 -25,-12 -18,17 -3,24 v 15 l -17,3 -3,46 -13,5 2,17 -36,10 -3,22 -13,8 -7,20 -8,49 c 0,0 15,29 23,15 8,-13 22,-15 22,-15 l 5,-12 45,2 c 3,-19 25,-12 25,-3 0,8 17,2 17,2 l 12,-19 h 18 l 2,-20 8,-5 v -30 c 27,-8 23,-34 23,-34 l 7,-8 -3,-12 c -13,-5 -7,-17 2,-14 8,3 -12,-15 -12,-15 -10,8 -18,-10 -18,-10 z m -76,-69 -13,3 -30,29 -2,13 -8,12 -10,25 -35,2 -7,30 5,26 30,12 3,-17 10,-5 2,-17 7,-12 10,-12 3,-13 17,-10 20,-4 8,-10 3,-20 2,-15 7,-11 20,-8 v -32 h -10 l -2,-12 -18,-2 -4,9 h -8 l -2,13 h 10 l 2,11 -7,6 z m -528,203 c 0,4 -3,7 -7,7 -4,0 -7,-3 -7,-7 0,-4 3,-7 7,-7 4,0 7,3 7,7 z m -1,193 c 0,4 -3,7 -7,7 -4,0 -7,-3 -7,-7 0,-4 3,-7 7,-7 4,0 7,3 7,7 z m -18,-28 c 4,0 7,-3 7,-7 0,-4 -3,-7 -7,-7 -4,0 -7,3 -7,7 0,4 3,7 7,7 z m -20,40 -14,2 v 12 l 14,-2 z m 15,-86 -12,2 -1,13 13,2 z m -3,-91 1,-12 -25,17 -16,-10 v 40 l 26,36 10,-24 4,-15 -12,-5 2,-25 z m -10,-142 -30,-3 2,12 h 8 c 13,24 2,81 2,81 0,0 -20,2 -23,-8 -3,-10 -12,22 -5,27 7,5 30,0 32,19 2,19 15,-12 15,-12 z M 192,0 h -18 l -3,-37 10,-7 v -19 h -58 l -2,-19 8,-5 -13,-5 -10,13 -3,15 -17,3 v 8 H 74 v 22 L 27,8 -66,5 c -7,15 -23,-2 -23,-2 -3,-10 -27,0 -27,0 0,19 -32,-8 -32,-8 l -58,-42 c -33,-30 -83,8 -85,17 2,24 -38,5 -38,5 0,0 -33,-10 -38,3 -5,13 -27,10 -27,10 l -3,7 -17,3 -3,10 -20,3 50,-2 c 13,-2 -5,29 -13,27 l -23,2 -8,8 h -22 l -10,14 -32,-2 c 0,0 -18,15 -17,20 2,5 -3,20 -8,20 -5,0 -15,15 -12,20 3,5 -10,22 -10,22 l -3,17 -10,3 v 46 l -20,14 v 20 l -30,32 3,27 -25,27 3,27 -15,5 -3,12 -7,35 17,2 c 8,-3 7,22 0,25 -7,3 -25,10 -15,17 10,7 -27,5 -27,-5 0,-10 -20,-19 -25,-15 -5,3 -13,-15 -13,-15 -18,-19 -75,2 -75,2 l -8,27 c -18,3 -30,34 -30,34 -15,5 -27,24 -22,29 5,5 -8,7 -8,7 v 37 l -8,12 2,40 c 10,0 8,19 8,19 -17,2 -13,24 -13,24 l -35,12 -7,10 -43,-2 -12,12 -12,-12 h -83 l -3,-8 -17,-3 -2,-19 -25,2 -5,10 -27,2 c 2,17 -27,42 -30,35 -3,-7 -22,-25 -13,-29 8,-3 30,-7 30,-7 v -12 l -62,-2 -7,10 -25,2 v 27 l -12,3 c -8,5 2,24 2,24 12,12 -2,30 -2,30 -10,10 8,29 8,29 13,3 -8,13 -8,13 3,17 13,22 13,22 -10,17 7,25 7,25 l 2,29 12,7 v 19 l 7,12 h 27 l -2,-42 c -23,-27 20,-34 22,-24 2,10 20,15 20,15 3,25 32,40 40,15 8,-25 15,-10 20,2 5,12 37,41 37,41 h 25 l 3,24 c 28,-2 37,2 48,40 12,39 43,49 43,49 l 23,-2 c 0,-20 23,3 23,14 0,10 45,49 45,49 l 45,10 42,34 32,-3 h 13 c 8,-29 48,2 52,12 3,10 30,27 33,19 3,-8 22,-3 25,22 3,25 15,20 15,20 l 95,-2 33,-29 85,-2 c 43,-2 17,-61 8,-61 -15,-12 5,-61 5,-61 L -479,913 c -28,0 -3,-41 -3,-41 22,-14 -5,-35 -5,-35 3,-20 -12,-44 -12,-44 -30,-20 -22,-59 -22,-59 v -27 c -25,-24 10,-27 10,-27 12,-20 -8,-35 -8,-35 l -2,-22 -27,-3 -3,-79 -60,-86 c -12,-3 -3,-24 -3,-24 15,-8 -3,-29 -3,-29 l -2,-37 35,-3 8,-13 h 17 l -2,-44 c 8,-22 28,-10 28,-10 l 23,2 13,-25 3,-20 -18,-2 c -20,-12 -10,-56 -10,-56 32,-47 68,-20 68,-20 l 23,-2 c 35,24 3,67 3,67 -7,10 -3,42 -3,42 l 8,54 -22,19 c -18,10 -18,34 2,39 13,2 8,34 -12,12 -30,0 17,27 3,20 30,15 23,-13 23,-13 l 40,-32 c 15,-12 42,25 42,30 0,5 66,2 66,2 18,12 25,42 25,42 18,-24 57,-2 28,12 27,17 27,32 27,32 22,-7 22,10 22,15 0,5 7,-25 7,-25 -25,-19 33,-25 17,8 l -10,15 17,13 2,39 c 37,-3 27,-49 27,-49 l 17,-3 c 0,-15 12,-7 12,-7 -12,-57 27,-67 27,-67 22,-5 23,-51 23,-51 -15,-7 -7,-30 10,-10 17,20 -10,-41 -10,-41 l -13,-12 -18,-2 -2,-19 h -30 l -5,24 -11,5 -3,-7 -5,19 h -30 l -2,-20 18,-5 7,-10 5,-27 h 22 l 28,-8 c 2,-29 17,-22 17,-22 l 25,20 2,10 -10,5 -2,14 5,19 h 13 c 5,-27 40,-27 50,-10 l 10,-24 c -23,-12 0,-30 6,-22 7,8 22,-22 22,-22 0,0 12,15 0,-5 -12,-20 8,-30 8,-30 -3,-20 22,-17 22,-17 l 2,-27 -23,-2 c -5,24 -25,3 -15,-2 10,-5 20,-15 20,-15 v -17 l 10,-3 2,-17 h 25 l 22,-10 5,-8 23,-2 33,-30 -3,-13 c -20,0 0,-15 0,-15 z m -903,1517 -13,-20 20,3 21,18 9,22 -12,7 -7,-10 -16,-5 z m -367,-506 8,23 12,9 11,25 -6,12 -19,-17 -13,-19 -7,-15 -11,-30 z m -100,-90 h -8 v 17 h 13 v 22 h 10 l -2,-25 -13,-5 z m 1308,-1028 10,-2 2,10 -10,2 z m 12,-6 3,-10 13,4 -2,10 z m 24,-10 1,-10 -11,-2 -2,10 z m 17,-22 h 13 v 10 h -13 z m 85,12 1,-10 12,1 -2,10 z m 33,7 1,-10 -12,-2 -1,10 z m 12,1 h 13 v 10 h -13 z m 15,17 v 12 l 10,-1 v -12 z"
       id="path6"
       style="stroke:#6a6a6a;stroke-opacity:1;fill:#000000;fill-opacity:1;stroke-width:5;stroke-dasharray:none" />
  </g>
</svg>
