<?xml version="1.0" encoding="UTF-8" standalone="no"?>
<!-- Created with Inkscape (http://www.inkscape.org/) -->

<svg
   width="57.894855mm"
   height="57.895054mm"
   viewBox="0 0 57.894855 57.895054"
   version="1.1"
   id="svg1"
   inkscape:version="1.4 (86a8ad7, 2024-10-11)"
   sodipodi:docname="logo.svg"
   xmlns:inkscape="http://www.inkscape.org/namespaces/inkscape"
   xmlns:sodipodi="http://sodipodi.sourceforge.net/DTD/sodipodi-0.dtd"
   xmlns="http://www.w3.org/2000/svg"
   xmlns:svg="http://www.w3.org/2000/svg">
  <sodipodi:namedview
     id="namedview1"
     pagecolor="#ffffff"
     bordercolor="#000000"
     borderopacity="0.25"
     inkscape:showpageshadow="2"
     inkscape:pageopacity="0.0"
     inkscape:pagecheckerboard="0"
     inkscape:deskcolor="#d1d1d1"
     inkscape:document-units="mm"
     inkscape:zoom="0.76167929"
     inkscape:cx="109.62619"
     inkscape:cy="109.62619"
     inkscape:window-width="1920"
     inkscape:window-height="1057"
     inkscape:window-x="-8"
     inkscape:window-y="-8"
     inkscape:window-maximized="1"
     inkscape:current-layer="layer1" />
  <defs
     id="defs1" />
  <g
     inkscape:label="Layer 1"
     inkscape:groupmode="layer"
     id="layer1"
     transform="translate(-76.2,-119.59166)">
    <path
       class="cls-1"
       d="m 106.29581,119.61494 c -15.975539,-0.635 -29.437539,11.80042 -30.072539,27.77596 -0.635,15.97554 11.803063,29.43754 27.775959,30.07254 15.97554,0.635 29.43754,-11.80042 30.07254,-27.77596 0.63235,-15.97554 -11.80306,-29.44019 -27.77596,-30.07254 z m 12.21846,42.40742 c -0.35983,0.635 -1.06098,0.9525 -1.7436,0.85725 -0.20902,-0.0291 -0.41805,-0.0979 -0.61384,-0.20902 -3.82587,-2.17752 -7.9957,-3.59569 -12.39308,-4.21482 -4.397375,-0.61912 -8.797396,-0.40481 -13.075708,0.635 -0.928688,0.2249 -1.862667,-0.34395 -2.087563,-1.27264 -0.224895,-0.92869 0.343959,-1.86267 1.272646,-2.08756 4.704292,-1.143 9.540875,-1.37848 14.372165,-0.6985 4.83129,0.67997 9.41388,2.23837 13.6234,4.63285 0.82814,0.4736 1.11918,1.52665 0.64823,2.35744 z m 3.80471,-7.59884 c -0.59002,1.09009 -1.95527,1.49755 -3.04536,0.90752 -4.47675,-2.42093 -9.32391,-4.01108 -14.40656,-4.72545 -5.082643,-0.71438 -10.178518,-0.52123 -15.150039,0.5715 -0.269875,0.0582 -0.537104,0.0688 -0.796396,0.0318 -0.902229,-0.127 -1.674812,-0.79905 -1.881187,-1.74361 -0.267229,-1.21179 0.500062,-2.41035 1.711854,-2.67758 5.495396,-1.20915 11.128375,-1.42346 16.742838,-0.635 5.61181,0.78846 10.96962,2.54529 15.91733,5.22287 1.09273,0.59002 1.49754,1.95263 0.90752,3.04536 z m 4.21746,-8.5672 c -0.55563,1.06891 -1.71186,1.62189 -2.83898,1.46314 -0.30427,-0.0423 -0.60325,-0.13758 -0.89165,-0.28575 -5.21229,-2.71198 -10.82675,-4.50321 -16.68727,-5.32606 -5.86052,-0.82286 -11.75279,-0.64823 -17.510123,0.52123 -1.497542,0.30427 -2.955396,-0.66411 -3.259667,-2.159 -0.30427,-1.49754 0.664105,-2.9554 2.159,-3.25967 6.376459,-1.29381 12.89579,-1.48696 19.38073,-0.57679 6.48494,0.91017 12.69735,2.89454 18.47056,5.89756 1.35467,0.70379 1.88119,2.37331 1.1774,3.72798 z"
       id="path1"
       style="stroke-width:0px" />
  </g>
</svg>
