<svg xmlns="http://www.w3.org/2000/svg" xmlns:xlink="http://www.w3.org/1999/xlink" version="1.1" x="0px" y="0px" viewBox="0 0 70 87.5" style="enable-background:new 0 0 70 70;" xml:space="preserve" fill="#FFFFFF"><style type="text/css">
	.st0{stroke:#000000;stroke-width:2;stroke-linecap:round;stroke-linejoin:round;stroke-miterlimit:10;}
</style><g><g><g><g><path d="M35,9.9949951c-10.3399658,0-18.75,8.4099731-18.75,18.75c0,10.0700073,17.2600098,30.0599976,18,30.9099731      C34.4400024,59.875,34.710022,60.0050049,35,60.0050049c0.2900391,0,0.5700073-0.1300049,0.7600098-0.3500366      C36.4899902,58.8049927,53.75,38.8150024,53.75,28.7449951C53.75,18.4049683,45.3400269,9.9949951,35,9.9949951z       M44.3200073,28.7449951c0,5.0999756-4.1199951,9.2700195-9.2299805,9.3200073H35      c-2.4500122,0-4.7600098-0.9500122-6.5200195-2.6699829c-1.7799683-1.75-2.7699585-4.0800171-2.789978-6.5599976      c-0.0499878-5.1400146,4.0900269-9.3600464,9.2299805-9.4100342c2.460022,0,4.8300171,0.9299927,6.6100464,2.6699829      c1.7799683,1.75,2.7699585,4.0800171,2.789978,6.5599976V28.7449951z"/></g></g></g></g></svg>