<svg xmlns="http://www.w3.org/2000/svg" version="1.1" viewBox="-5.0 -10.0 110.0 135.0" fill="#959595">
 <path d="m22.34 42.984-7.8438-9.2656c-1.2422 0.60938-2.6406 0.94922-4.1172 0.94922-2.5859 0-4.9258-1.0469-6.6211-2.7422-1.6953-1.6953-2.7422-4.0352-2.7422-6.6211 0-2.582 1.0469-4.9258 2.7422-6.6211 1.6953-1.6953 4.0352-2.7422 6.6211-2.7422 2.5859 0 4.9258 1.0508 6.6211 2.7422 1.6953 1.6953 2.7422 4.0352 2.7422 6.6211 0 2.0352-0.64844 3.918-1.75 5.4492l7.8438 9.2656c1.2422-0.60938 2.6406-0.94922 4.1172-0.94922 2.582 0 4.9258 1.0508 6.6211 2.7461 0.28906 0.28516 0.55469 0.58984 0.80078 0.91016l19.77-8.5664c-0.082031-0.49219-0.12109-1-0.12109-1.5117 0-2.5859 1.0508-4.9258 2.7422-6.6211 1.6953-1.6953 4.0352-2.7422 6.6211-2.7422 2.5859 0 4.9258 1.0469 6.6211 2.7422 1.6953 1.6953 2.7422 4.0352 2.7422 6.6211 0 1.9219-0.58203 3.7109-1.5742 5.1953l11.039 12.191c1.3125-0.69922 2.8086-1.0938 4.4023-1.0938 2.5859 0 4.9258 1.0469 6.6211 2.7422 1.6953 1.6953 2.7422 4.0352 2.7422 6.6211 0 2.5859-1.0469 4.9258-2.7422 6.6211-1.6953 1.6953-4.0352 2.7422-6.6211 2.7422-2.5859 0-4.9258-1.0469-6.6211-2.7422-0.59375-0.59375-1.1094-1.2734-1.5312-2.0117l-42.152 11.582c0 0.066406 0.003906 0.13672 0.003906 0.19922 0 2.582-1.0508 4.9258-2.7422 6.6211-1.6953 1.6953-4.0352 2.7422-6.6211 2.7422s-4.9258-1.0469-6.6211-2.7422c-1.6953-1.6953-2.7422-4.0352-2.7422-6.6211 0-2.5859 1.0508-4.9258 2.7422-6.6211 1.1758-1.1758 2.6602-2.0391 4.3242-2.4609v-8.1016c-1.6602-0.42188-3.1484-1.2852-4.3242-2.4609-1.6953-1.6953-2.7422-4.0352-2.7422-6.6211 0-2.0352 0.64844-3.918 1.75-5.4492zm36.625-4.6289-19.77 8.5664c0.082032 0.49219 0.12109 1 0.12109 1.5156 0 2.582-1.0508 4.9258-2.7422 6.6211-1.1758 1.1758-2.6602 2.0391-4.3242 2.4609v8.1016c1.6602 0.42188 3.1484 1.2852 4.3242 2.4609 0.59375 0.59375 1.1094 1.2734 1.5312 2.0117l42.152-11.582c0-0.066407-0.003906-0.13281-0.003906-0.19922 0-1.9219 0.57812-3.7109 1.5742-5.1953l-11.039-12.191c-1.3125 0.69922-2.8125 1.0938-4.4023 1.0938-2.582 0-4.9258-1.0469-6.6211-2.7422-0.28516-0.28516-0.55469-0.58984-0.80078-0.91016z"/>
</svg>