<?xml version="1.0" encoding="UTF-8" standalone="no"?>
<svg
   version="1.1"
   x="0px"
   y="0px"
   viewBox="0 0 98.599995 98.599998"
   xml:space="preserve"
   id="svg12"
   sodipodi:docname="noun-vinyl-6402867.svg"
   width="98.599998"
   height="98.599998"
   inkscape:version="1.4 (86a8ad7, 2024-10-11)"
   xmlns:inkscape="http://www.inkscape.org/namespaces/inkscape"
   xmlns:sodipodi="http://sodipodi.sourceforge.net/DTD/sodipodi-0.dtd"
   xmlns="http://www.w3.org/2000/svg"
   xmlns:svg="http://www.w3.org/2000/svg"><defs
     id="defs12" /><sodipodi:namedview
     id="namedview12"
     pagecolor="#ffffff"
     bordercolor="#000000"
     borderopacity="0.25"
     inkscape:showpageshadow="2"
     inkscape:pageopacity="0.0"
     inkscape:pagecheckerboard="0"
     inkscape:deskcolor="#d1d1d1"
     inkscape:zoom="6.8537074"
     inkscape:cx="49.389327"
     inkscape:cy="62.812719"
     inkscape:window-width="1920"
     inkscape:window-height="1057"
     inkscape:window-x="-8"
     inkscape:window-y="-8"
     inkscape:window-maximized="1"
     inkscape:current-layer="g11" /><g
     id="g11"
     transform="translate(-0.6,-0.6)"><path
       d="M 49.9,0.6 C 22.7,0.6 0.6,22.7 0.6,49.9 0.6,77.1 22.7,99.2 49.9,99.2 77.1,99.2 99.2,77.1 99.2,49.9 99.2,22.7 77.1,0.6 49.9,0.6 Z m 0,96.6 C 23.8,97.2 2.6,76 2.6,49.9 2.6,23.8 23.8,2.6 49.9,2.6 76,2.6 97.2,23.8 97.2,49.9 97.2,76 76,97.2 49.9,97.2 Z"
       id="path1"
       style="stroke:#ffffff;stroke-opacity:1" /><path
       d="M 49.9,5.6 C 25.5,5.6 5.6,25.5 5.6,49.9 5.6,74.3 25.5,94.2 49.9,94.2 74.3,94.2 94.2,74.3 94.2,49.9 94.2,25.5 74.3,5.6 49.9,5.6 Z m 0,88 C 25.8,93.6 6.2,74 6.2,49.9 6.2,25.8 25.8,6.2 49.9,6.2 74,6.2 93.6,25.8 93.6,49.9 93.6,74 74,93.6 49.9,93.6 Z"
       id="path2"
       style="stroke:#ffffff;stroke-opacity:1" /><path
       d="M 49.9,9.1 C 27.4,9.1 9.1,27.4 9.1,49.9 9.1,72.4 27.4,90.7 49.9,90.7 72.4,90.7 90.7,72.4 90.7,49.9 90.7,27.4 72.4,9.1 49.9,9.1 Z m 0,81 C 27.7,90.1 9.7,72.1 9.7,49.9 9.7,27.7 27.7,9.7 49.9,9.7 c 22.2,0 40.2,18 40.2,40.2 0,22.2 -18,40.2 -40.2,40.2 z"
       id="path3"
       style="stroke:#ffffff;stroke-opacity:1" /><path
       d="m 49.9,12.6 c -20.6,0 -37.3,16.7 -37.3,37.3 0,20.6 16.7,37.3 37.3,37.3 20.6,0 37.3,-16.7 37.3,-37.3 0,-20.6 -16.7,-37.3 -37.3,-37.3 z m 0,74 c -20.2,0 -36.7,-16.5 -36.7,-36.7 0,-20.2 16.5,-36.7 36.7,-36.7 20.2,0 36.7,16.5 36.7,36.7 0,20.2 -16.5,36.7 -36.7,36.7 z"
       id="path4"
       style="stroke:#ffffff;stroke-opacity:1" /><path
       d="m 49.9,16.1 c -18.6,0 -33.8,15.2 -33.8,33.8 0,18.6 15.2,33.8 33.8,33.8 18.6,0 33.8,-15.2 33.8,-33.8 0,-18.6 -15.2,-33.8 -33.8,-33.8 z m 0,67 c -18.3,0 -33.2,-14.9 -33.2,-33.2 0,-18.3 14.9,-33.2 33.2,-33.2 18.3,0 33.2,14.9 33.2,33.2 0,18.3 -14.9,33.2 -33.2,33.2 z"
       id="path5"
       style="stroke:#ffffff;stroke-opacity:1" /><path
       d="m 49.9,19.6 c -16.7,0 -30.3,13.6 -30.3,30.3 0,16.7 13.6,30.3 30.3,30.3 16.7,0 30.3,-13.6 30.3,-30.3 0,-16.7 -13.6,-30.3 -30.3,-30.3 z m 0,60 c -16.4,0 -29.7,-13.3 -29.7,-29.7 0,-16.4 13.3,-29.7 29.7,-29.7 16.4,0 29.7,13.3 29.7,29.7 0,16.4 -13.3,29.7 -29.7,29.7 z"
       id="path6"
       style="stroke:#ffffff;stroke-opacity:1" /><path
       d="m 49.9,23.1 c -14.8,0 -26.8,12 -26.8,26.8 0,14.8 12,26.8 26.8,26.8 14.8,0 26.8,-12 26.8,-26.8 0,-14.8 -12,-26.8 -26.8,-26.8 z m 0,53 c -14.4,0 -26.2,-11.8 -26.2,-26.2 0,-14.4 11.8,-26.2 26.2,-26.2 14.4,0 26.2,11.8 26.2,26.2 0,14.4 -11.8,26.2 -26.2,26.2 z"
       id="path7"
       style="stroke:#ffffff;stroke-opacity:1" /><path
       d="m 49.9,26.6 c -12.8,0 -23.3,10.5 -23.3,23.3 0,12.8 10.5,23.3 23.3,23.3 12.8,0 23.3,-10.5 23.3,-23.3 0,-12.8 -10.5,-23.3 -23.3,-23.3 z m 0,46 c -12.5,0 -22.7,-10.2 -22.7,-22.7 0,-12.5 10.2,-22.7 22.7,-22.7 12.5,0 22.7,10.2 22.7,22.7 0,12.5 -10.2,22.7 -22.7,22.7 z"
       id="path8"
       style="stroke:#ffffff;stroke-opacity:1" /><path
       d="M 49.9,30.1 C 39,30.1 30.1,39 30.1,49.9 30.1,60.8 39,69.7 49.9,69.7 60.8,69.7 69.7,60.8 69.7,49.9 69.7,39 60.8,30.1 49.9,30.1 Z m 0,39 c -10.6,0 -19.2,-8.6 -19.2,-19.2 0,-10.6 8.6,-19.2 19.2,-19.2 10.6,0 19.2,8.6 19.2,19.2 0,10.6 -8.6,19.2 -19.2,19.2 z"
       id="path9"
       style="stroke:#ffffff;stroke-opacity:1" /><path
       d="m 49.9,33.6 c -9,0 -16.3,7.3 -16.3,16.3 0,9 7.3,16.3 16.3,16.3 9,0 16.3,-7.3 16.3,-16.3 0,-9 -7.3,-16.3 -16.3,-16.3 z m 0,32 c -8.7,0 -15.7,-7 -15.7,-15.7 0,-8.7 7,-15.7 15.7,-15.7 8.7,0 15.7,7 15.7,15.7 0,8.7 -7,15.7 -15.7,15.7 z"
       id="path10"
       style="stroke:#ffffff;stroke-opacity:1" /><path
       d="m 49.9,44.4 c -3,0 -5.5,2.5 -5.5,5.5 0,3 2.5,5.5 5.5,5.5 3,0 5.5,-2.5 5.5,-5.5 0,-3 -2.5,-5.5 -5.5,-5.5 z m 0,9 c -1.9,0 -3.5,-1.6 -3.5,-3.5 0,-1.9 1.6,-3.5 3.5,-3.5 1.9,0 3.5,1.6 3.5,3.5 0,1.9 -1.6,3.5 -3.5,3.5 z"
       id="path11"
       style="stroke:#ffffff;stroke-opacity:1" /></g></svg>
